<svg width="16" height="16" viewBox="0 0 16 16" fill="none" xmlns="http://www.w3.org/2000/svg">
<path d="M15.0217 0.169708L15.8297 0.97828L7.26399 9.54399L6.45599 8.73599L15.0217 0.169708Z" fill="black"/>
<path d="M16 5.71429H14.8571V1.14286H10.2857V0H16V5.71429Z" fill="black"/>
<path d="M13.1429 16H1.71429C0.742857 16 0 15.2571 0 14.2857V2.85714C0 1.88571 0.742857 1.14285 1.71429 1.14285H8V2.28571H1.71429C1.37143 2.28571 1.14286 2.51428 1.14286 2.85714V14.2857C1.14286 14.6286 1.37143 14.8571 1.71429 14.8571H13.1429C13.4857 14.8571 13.7143 14.6286 13.7143 14.2857V8H14.8571V14.2857C14.8571 15.2571 14.1143 16 13.1429 16Z" fill="black"/>
</svg>
