<svg width="23" height="41" viewBox="0 0 23 41" fill="none" xmlns="http://www.w3.org/2000/svg">
<path d="M21.7063 0.658148C22.0203 0.965881 22.196 1.37899 22.196 1.80916C22.196 2.23933 22.0203 2.65244 21.7063 2.96017L4.16609 20.1874L21.7063 37.4113C22.0203 37.719 22.196 38.1321 22.196 38.5623C22.196 38.9924 22.0203 39.4056 21.7063 39.7133C21.5537 39.8633 21.3713 39.9826 21.1697 40.064C20.9682 40.1455 20.7517 40.1874 20.5329 40.1874C20.3141 40.1874 20.0976 40.1455 19.8961 40.064C19.6945 39.9826 19.5121 39.8633 19.3595 39.7133L0.706996 21.3901C0.379394 21.0684 0.196045 20.6368 0.196045 20.1874C0.196045 19.7381 0.379394 19.3065 0.706996 18.9847L19.3595 0.661594C19.5121 0.511537 19.6945 0.39227 19.8961 0.310833C20.0976 0.229396 20.3141 0.187439 20.5329 0.187439C20.7517 0.187439 20.9682 0.229396 21.1697 0.310833C21.3713 0.39227 21.5537 0.511537 21.7063 0.661594V0.658148Z" fill="#C6C6C6"/>
</svg>
