<svg width="25" height="25" viewBox="0 0 25 25" fill="none" xmlns="http://www.w3.org/2000/svg">
<path fill-rule="evenodd" clip-rule="evenodd" d="M1.13634 1.13048C1.76392 0.506133 2.78143 0.506133 3.40901 1.13048L23.863 21.4791C24.4906 22.1035 24.4906 23.1157 23.863 23.7401C23.2355 24.3644 22.218 24.3644 21.5904 23.7401L1.13634 3.39144C0.508759 2.76709 0.508759 1.75483 1.13634 1.13048Z" fill="#333333"/>
<path fill-rule="evenodd" clip-rule="evenodd" d="M23.8637 1.25991C24.4912 1.88426 24.4912 2.89652 23.8637 3.52087L3.40964 23.8695C2.78206 24.4939 1.76455 24.4939 1.13697 23.8695C0.509388 23.2452 0.509389 22.2329 1.13697 21.6086L21.591 1.25991C22.2186 0.635561 23.2361 0.635561 23.8637 1.25991Z" fill="#333333"/>
</svg>
