<svg width="21" height="21" viewBox="0 0 21 21" fill="none" xmlns="http://www.w3.org/2000/svg">
<path d="M10.7487 0.501953C8.03062 0.501953 7.69187 0.515078 6.62812 0.560078C5.56 0.612578 4.8375 0.778203 4.2 1.0257C3.53279 1.27759 2.92854 1.67196 2.42937 2.18133C1.91859 2.67933 1.524 3.28391 1.27375 3.95195C1.02625 4.58945 0.860625 5.31195 0.808125 6.38008C0.76 7.44445 0.75 7.78258 0.75 10.5007C0.75 13.2188 0.763125 13.5576 0.808125 14.6213C0.860625 15.6863 1.02625 16.412 1.27375 17.0495C1.52564 17.7167 1.92001 18.3209 2.42937 18.8201C2.92737 19.3309 3.53196 19.7255 4.2 19.9757C4.8375 20.2201 5.56312 20.3888 6.62812 20.4413C7.6925 20.4895 8.03062 20.4995 10.7487 20.4995C13.4669 20.4995 13.8056 20.4863 14.8694 20.4413C15.9344 20.3888 16.66 20.2195 17.2975 19.9757C17.9647 19.7238 18.569 19.3294 19.0681 18.8201C19.5796 18.3226 19.9743 17.7179 20.2237 17.0495C20.4681 16.412 20.6369 15.6863 20.6894 14.6213C20.7375 13.557 20.7475 13.2188 20.7475 10.5007C20.7475 7.78258 20.7344 7.44383 20.6894 6.38008C20.6369 5.31508 20.4675 4.5857 20.2237 3.95195C19.9719 3.28474 19.5775 2.68049 19.0681 2.18133C18.5707 1.66988 17.9659 1.27519 17.2975 1.0257C16.66 0.778203 15.9344 0.612578 14.8694 0.560078C13.805 0.511953 13.4669 0.501953 10.7487 0.501953ZM10.7487 2.30195C13.4181 2.30195 13.7369 2.31508 14.7919 2.36008C15.765 2.4057 16.295 2.5682 16.6469 2.7057C17.0819 2.86628 17.4756 3.12186 17.7994 3.45383C18.1308 3.77622 18.3854 4.16905 18.5444 4.6032C18.6819 4.95508 18.8444 5.48508 18.89 6.4582C18.935 7.5132 18.9481 7.83258 18.9481 10.5013C18.9481 13.1701 18.935 13.4895 18.8862 14.5445C18.8337 15.5176 18.6712 16.0476 18.5344 16.3995C18.345 16.8688 18.1337 17.197 17.785 17.552C17.4601 17.8818 17.0667 18.1362 16.6325 18.297C16.285 18.4345 15.7475 18.597 14.7706 18.6426C13.71 18.6876 13.3975 18.7007 10.7212 18.7007C8.045 18.7007 7.73312 18.6876 6.67125 18.6388C5.69812 18.5863 5.16125 18.4238 4.80937 18.287C4.33437 18.0976 4.00875 17.8863 3.66 17.5376C3.30812 17.1857 3.08437 16.8507 2.91187 16.3851C2.77187 16.0376 2.61187 15.5001 2.56 14.5232C2.52437 13.4751 2.5075 13.1501 2.5075 10.4863C2.5075 7.82383 2.52437 7.4982 2.56 6.43695C2.61187 5.46008 2.77187 4.92383 2.91187 4.57508C3.08437 4.09945 3.30875 3.77445 3.66 3.42258C4.00812 3.07445 4.33437 2.84945 4.80937 2.6732C5.16125 2.53633 5.685 2.37383 6.66187 2.32508C7.7225 2.28695 8.035 2.2732 10.7075 2.2732L10.7487 2.30195ZM10.7487 5.36883C10.0746 5.36858 9.40699 5.50119 8.7841 5.75906C8.16121 6.01694 7.59524 6.39503 7.11853 6.87174C6.64183 7.34844 6.26373 7.91441 6.00586 8.5373C5.74798 9.16019 5.61538 9.82779 5.61562 10.502C5.61538 11.1761 5.74798 11.8437 6.00586 12.4666C6.26373 13.0895 6.64183 13.6555 7.11853 14.1322C7.59524 14.6089 8.16121 14.987 8.7841 15.2448C9.40699 15.5027 10.0746 15.6353 10.7487 15.6351C11.4229 15.6353 12.0905 15.5027 12.7134 15.2448C13.3363 14.987 13.9023 14.6089 14.379 14.1322C14.8557 13.6555 15.2338 13.0895 15.4916 12.4666C15.7495 11.8437 15.8821 11.1761 15.8819 10.502C15.8821 9.82779 15.7495 9.16019 15.4916 8.5373C15.2338 7.91441 14.8557 7.34844 14.379 6.87174C13.9023 6.39503 13.3363 6.01694 12.7134 5.75906C12.0905 5.50119 11.4229 5.36858 10.7487 5.36883ZM10.7487 13.8351C8.90625 13.8351 7.41562 12.3445 7.41562 10.502C7.41562 8.65945 8.90625 7.16883 10.7487 7.16883C12.5912 7.16883 14.0819 8.65945 14.0819 10.502C14.0819 12.3445 12.5912 13.8351 10.7487 13.8351ZM17.2887 5.16383C17.2884 5.48237 17.1616 5.78775 16.9363 6.01287C16.7109 6.238 16.4054 6.36445 16.0869 6.36445C15.9294 6.36445 15.7734 6.33343 15.6279 6.27316C15.4824 6.21288 15.3502 6.12454 15.2388 6.01316C15.1274 5.90179 15.0391 5.76957 14.9788 5.62406C14.9185 5.47854 14.8875 5.32258 14.8875 5.16508C14.8875 5.00757 14.9185 4.85161 14.9788 4.7061C15.0391 4.56058 15.1274 4.42836 15.2388 4.31699C15.3502 4.20562 15.4824 4.11727 15.6279 4.057C15.7734 3.99673 15.9294 3.9657 16.0869 3.9657C16.7475 3.9657 17.2887 4.5032 17.2887 5.16383Z" fill="#333333"/>
</svg>
