<svg width="25" height="21" viewBox="0 0 25 21" fill="none" xmlns="http://www.w3.org/2000/svg">
<path d="M24.2528 2.95216C23.3862 3.33888 22.4432 3.6172 21.4718 3.7256C22.4803 3.10578 23.2355 2.12657 23.5958 0.971692C22.6494 1.55408 21.6127 1.96246 20.5315 2.17872C20.0797 1.679 19.5332 1.28089 18.9261 1.00921C18.319 0.737537 17.6643 0.59811 17.0028 0.599622C14.3266 0.599622 12.1742 2.84376 12.1742 5.59767C12.1742 5.98439 12.2195 6.37111 12.2932 6.74318C8.28584 6.52638 4.71182 4.54591 2.33574 1.51368C1.9028 2.27867 1.67592 3.1497 1.67871 4.03614C1.67871 5.77052 2.53115 7.29982 3.83105 8.19923C3.065 8.16802 2.31689 7.9502 1.64756 7.56349V7.62501C1.64756 10.0537 3.30713 12.0664 5.51895 12.5293C5.10365 12.6409 4.67644 12.698 4.24736 12.6992C3.93301 12.6992 3.63564 12.667 3.33545 12.6231C3.94717 14.6035 5.72852 16.042 7.84971 16.0889C6.19014 17.4336 4.11143 18.2246 1.8543 18.2246C1.44932 18.2246 1.07549 18.21 0.6875 18.1631C2.82852 19.584 5.36885 20.4043 8.10459 20.4043C16.9858 20.4043 21.8456 12.793 21.8456 6.18654C21.8456 5.96974 21.8456 5.75294 21.8314 5.53615C22.7717 4.82423 23.5958 3.9424 24.2528 2.95216Z" fill="#333333"/>
</svg>
