<svg width="23" height="41" viewBox="0 0 23 41" fill="none" xmlns="http://www.w3.org/2000/svg">
<path d="M0.69968 0.658148C0.385726 0.965881 0.209961 1.37899 0.209961 1.80916C0.209961 2.23933 0.385726 2.65244 0.69968 2.96017L18.2399 20.1874L0.69968 37.4113C0.385726 37.719 0.209961 38.1321 0.209961 38.5623C0.209961 38.9924 0.385726 39.4056 0.69968 39.7133C0.852284 39.8633 1.03474 39.9826 1.23628 40.064C1.43782 40.1455 1.65435 40.1874 1.87311 40.1874C2.09186 40.1874 2.3084 40.1455 2.50994 40.064C2.71148 39.9826 2.89393 39.8633 3.04654 39.7133L21.699 21.3901C22.0266 21.0684 22.21 20.6368 22.21 20.1874C22.21 19.7381 22.0266 19.3065 21.699 18.9847L3.04654 0.661594C2.89393 0.511537 2.71148 0.39227 2.50994 0.310833C2.3084 0.229396 2.09186 0.187439 1.87311 0.187439C1.65435 0.187439 1.43782 0.229396 1.23628 0.310833C1.03474 0.39227 0.852284 0.511537 0.69968 0.661594V0.658148Z" fill="#C6C6C6"/>
</svg>
