<svg width="142" height="26" viewBox="0 0 142 26" fill="none" xmlns="http://www.w3.org/2000/svg">
<path d="M33.9012 2.17969H29.3756V18.6581C29.3756 19.7547 29.3756 20.5252 29.4333 21.2958C29.5486 23.3704 30.8169 24.2299 32.9788 24.2299C33.9877 24.2299 34.8236 24.1706 35.6884 24.0817V20.9105C34.3336 20.9698 34.0165 20.7327 33.93 20.0214C33.9012 19.6065 33.9012 19.2508 33.9012 18.5692V2.17969Z" fill="#333333"/>
<path d="M51.6005 15.7833C51.6005 11.5747 49.0638 7.75152 44.1635 7.75152C39.292 7.75152 36.2077 11.3673 36.2077 16.1093C36.2077 21.6811 39.5803 24.3781 43.8752 24.3781C47.6225 24.3781 50.5051 22.4517 51.341 18.8063H46.8731C46.6137 20.2881 45.5471 21.1773 43.9617 21.1773C42.261 21.1773 40.9927 20.2881 40.7333 17.2651H51.514C51.5716 16.702 51.6005 16.1982 51.6005 15.7833ZM43.9617 10.9524C45.6336 10.9524 46.6425 12.1082 46.9019 14.331H40.8486C41.2233 11.9897 42.3475 10.9524 43.9617 10.9524Z" fill="#333333"/>
<path d="M60.3026 7.75152C55.9499 7.75152 52.4332 10.7745 52.4332 16.1982C52.4332 21.5625 55.6617 24.3781 59.9278 24.3781C63.9346 24.3781 66.8748 22.3331 67.4801 18.3617H63.0122C62.6663 20.1992 61.5709 21.1773 60.1873 21.1773C58.3136 21.1773 57.0741 19.5768 57.0741 15.9018C57.0741 12.5528 58.2848 10.9524 60.1873 10.9524C61.6862 10.9524 62.7527 11.8415 63.0698 14.005H67.4801C67.2495 10.4782 64.5976 7.75152 60.3026 7.75152Z" fill="#333333"/>
<path d="M74.607 11.2487H77.8642V8.28499H74.607V4.31358H70.0814V8.28499H67.7465V11.2487H70.0814V18.5099C70.0814 19.399 70.0814 20.1103 70.139 20.9105C70.312 23.2222 71.4073 24.3485 74.7799 24.3485C75.76 24.3485 76.6536 24.2596 77.576 24.1114V21.1476C75.2699 21.2958 74.7511 20.9402 74.6358 19.3694C74.607 18.9545 74.607 18.421 74.607 17.8875V11.2487Z" fill="#333333"/>
<path d="M86.2846 7.75152C81.1825 7.75152 78.1847 11.1302 78.1847 16.05C78.1847 20.9698 81.1825 24.3781 86.2846 24.3781C91.3579 24.3781 94.3846 20.9698 94.3846 16.05C94.3846 11.1302 91.3579 7.75152 86.2846 7.75152ZM86.2846 21.1773C84.1227 21.1773 82.8256 19.3397 82.8256 16.05C82.8256 12.7602 84.1227 10.9524 86.2846 10.9524C88.4177 10.9524 89.7149 12.7602 89.7149 16.05C89.7149 19.3397 88.4177 21.1773 86.2846 21.1773Z" fill="#333333"/>
<path d="M110.91 12.1082C110.564 9.35194 108.69 7.75152 105.462 7.75152C104.02 7.75152 102.925 8.04789 101.887 8.75919L100.619 10.656V8.16644H96.0934V23.9632H100.619V16.6427C100.619 12.6121 101.945 10.9524 103.732 10.9524C105.49 10.9524 106.355 11.96 106.471 13.5604C106.528 14.3607 106.528 15.1609 106.528 15.7536V23.9632H111.054V15.0423C111.054 13.7679 111.025 12.9084 110.91 12.1082Z" fill="#333333"/>
<path d="M127.999 15.7833C127.999 11.5747 125.462 7.75152 120.562 7.75152C115.691 7.75152 112.606 11.3673 112.606 16.1093C112.606 21.6811 115.979 24.3781 120.274 24.3781C124.021 24.3781 126.904 22.4517 127.74 18.8063H123.272C123.012 20.2881 121.946 21.1773 120.36 21.1773C118.66 21.1773 117.391 20.2881 117.132 17.2651H127.913C127.97 16.702 127.999 16.1982 127.999 15.7833ZM120.36 10.9524C122.032 10.9524 123.041 12.1082 123.301 14.331H117.247C117.622 11.9897 118.746 10.9524 120.36 10.9524Z" fill="#333333"/>
<path d="M135.202 11.2487H138.46V8.28499H135.202V4.31358H130.677V8.28499H128.342V11.2487H130.677V18.5099C130.677 19.399 130.677 20.1103 130.734 20.9105C130.907 23.2222 132.003 24.3485 135.375 24.3485C136.355 24.3485 137.249 24.2596 138.171 24.1114V21.1476C135.865 21.2958 135.346 20.9402 135.231 19.3694C135.202 18.9545 135.202 18.421 135.202 17.8875V11.2487Z" fill="#333333"/>
<path d="M9.51004 12.101C9.12014 13.5027 9.52595 14.9153 10.5498 15.7184C11.9568 16.8229 13.9514 16.1275 14.3612 14.3617C14.4673 13.9022 14.4978 13.3772 14.397 12.9218C14.092 11.5569 13.7074 10.2111 13.3466 8.8367C11.5828 9.04669 9.9742 10.4348 9.51004 12.101ZM16.8676 11.7097C17.2297 13.0895 17.2456 14.4599 16.6992 15.8002C15.2033 19.4681 10.4384 20.0817 7.98229 16.9265C6.25562 14.708 6.2848 11.5256 8.06186 9.10805C9.09627 7.70089 10.4543 6.78051 12.104 6.30736L12.6066 6.16556C12.4952 5.59969 12.3573 5.05292 12.2844 4.4966C12.051 2.70084 12.9634 1.0837 14.5972 0.351485C16.2231 -0.378001 18.1885 0.0569637 19.2786 1.38776C19.817 2.04089 19.8024 2.86037 19.2454 3.38397C18.6991 3.89802 17.9246 3.85575 17.3424 3.26125C17.0148 2.92582 16.666 2.6613 16.1793 2.66675C15.4831 2.67493 14.8704 3.23671 14.9261 3.94438C14.9752 4.58251 15.1555 5.21245 15.324 5.83422C15.3531 5.94058 15.6104 6.0183 15.7722 6.04284C17.5413 6.31145 19.0929 7.03958 20.3767 8.32811C23.769 11.7274 24.1708 17.2333 21.2679 21.1998C19.2401 23.9705 16.4804 25.5194 13.1424 25.848C7.01419 26.448 1.65249 22.3983 0.278575 16.2243C-0.974654 10.5738 2.10869 4.5416 7.35369 2.38587C8.13082 2.0668 8.8695 2.3436 9.17187 3.0649C9.47954 3.79711 9.14667 4.54569 8.3629 4.90566C5.22253 6.351 3.30091 8.79853 2.7731 12.3014C2.06625 16.9824 4.96923 21.5407 9.40394 22.8278C13.0151 23.8778 16.9074 22.6015 19.0956 19.6508C21.1989 16.8147 20.9522 12.6982 18.5293 10.2793C17.8572 9.60608 17.0227 9.12929 16.1117 8.89806C16.3743 9.87435 16.6276 10.7906 16.8676 11.7097Z" fill="#333333"/>
</svg>
