<svg width="21" height="19" viewBox="0 0 21 19" fill="none" xmlns="http://www.w3.org/2000/svg">
<path d="M10.6082 0.132812C7.89002 0.132812 7.55127 0.145046 6.48752 0.186989C5.41939 0.235923 4.69689 0.390298 4.05939 0.620987C3.39217 0.855765 2.78792 1.22335 2.28875 1.69812C1.77797 2.16229 1.38338 2.7258 1.13313 3.34847C0.885626 3.94267 0.72 4.61609 0.6675 5.61166C0.619375 6.60374 0.609375 6.9189 0.609375 9.45239C0.609375 11.9859 0.6225 12.3016 0.6675 13.2931C0.72 14.2858 0.885626 14.9621 1.13313 15.5563C1.38502 16.1782 1.77939 16.7414 2.28875 17.2067C2.78675 17.6828 3.39134 18.0506 4.05939 18.2838C4.69689 18.5116 5.42251 18.6689 6.48752 18.7178C7.5519 18.7627 7.89002 18.772 10.6082 18.772C13.3263 18.772 13.665 18.7597 14.7288 18.7178C15.7938 18.6689 16.5194 18.511 17.1569 18.2838C17.8241 18.049 18.4284 17.6814 18.9276 17.2067C19.439 16.743 19.8337 16.1793 20.0832 15.5563C20.3276 14.9621 20.4963 14.2858 20.5488 13.2931C20.5969 12.301 20.6069 11.9859 20.6069 9.45239C20.6069 6.9189 20.5938 6.60316 20.5488 5.61166C20.4963 4.619 20.3269 3.93917 20.0832 3.34847C19.8313 2.72658 19.4369 2.16337 18.9276 1.69812C18.4301 1.22141 17.8254 0.853527 17.1569 0.620987C16.5194 0.390298 15.7938 0.235923 14.7288 0.186989C13.6644 0.142133 13.3263 0.132812 10.6082 0.132812ZM10.6082 1.81055C13.2775 1.81055 13.5963 1.82278 14.6513 1.86472C15.6244 1.90725 16.1544 2.05871 16.5063 2.18687C16.9413 2.33654 17.335 2.57476 17.6588 2.88418C17.9902 3.18467 18.2448 3.55082 18.4038 3.95548C18.5413 4.28346 18.7038 4.77746 18.7494 5.68448C18.7944 6.66782 18.8076 6.9655 18.8076 9.45298C18.8076 11.9404 18.7944 12.2381 18.7457 13.2215C18.6932 14.1285 18.5307 14.6225 18.3938 14.9505C18.2044 15.388 17.9932 15.6938 17.6444 16.0247C17.3196 16.3322 16.9261 16.5692 16.4919 16.7191C16.1444 16.8472 15.6069 16.9987 14.63 17.0412C13.5694 17.0832 13.2569 17.0954 10.5807 17.0954C7.9044 17.0954 7.59252 17.0832 6.53064 17.0377C5.55751 16.9888 5.02064 16.8373 4.66876 16.7098C4.19376 16.5332 3.86813 16.3363 3.51938 16.0113C3.16751 15.6833 2.94376 15.3711 2.77126 14.9371C2.63126 14.6132 2.47126 14.1122 2.41938 13.2017C2.38376 12.2247 2.36688 11.9218 2.36688 9.43899C2.36688 6.95735 2.38376 6.65384 2.41938 5.66468C2.47126 4.75415 2.63126 4.25433 2.77126 3.92927C2.94376 3.48595 3.16813 3.18303 3.51938 2.85505C3.86751 2.53057 4.19376 2.32086 4.66876 2.15658C5.02064 2.029 5.54439 1.87754 6.52127 1.8321C7.5819 1.79657 7.8944 1.78375 10.5669 1.78375L10.6082 1.81055ZM10.6082 4.6691C9.93399 4.66887 9.26639 4.79247 8.6435 5.03283C8.0206 5.27319 7.45463 5.6256 6.97793 6.06993C6.50122 6.51425 6.12313 7.04177 5.86525 7.62235C5.60737 8.20294 5.47477 8.82519 5.47501 9.45356C5.47477 10.0819 5.60737 10.7042 5.86525 11.2848C6.12313 11.8653 6.50122 12.3929 6.97793 12.8372C7.45463 13.2815 8.0206 13.6339 8.6435 13.8743C9.26639 14.1146 9.93399 14.2382 10.6082 14.238C11.2823 14.2382 11.9499 14.1146 12.5728 13.8743C13.1957 13.6339 13.7617 13.2815 14.2384 12.8372C14.7151 12.3929 15.0932 11.8653 15.3511 11.2848C15.6089 10.7042 15.7415 10.0819 15.7413 9.45356C15.7415 8.82519 15.6089 8.20294 15.3511 7.62235C15.0932 7.04177 14.7151 6.51425 14.2384 6.06993C13.7617 5.6256 13.1957 5.27319 12.5728 5.03283C11.9499 4.79247 11.2823 4.66887 10.6082 4.6691ZM10.6082 12.5603C8.76565 12.5603 7.27502 11.1709 7.27502 9.45356C7.27502 7.73621 8.76565 6.34684 10.6082 6.34684C12.4507 6.34684 13.9413 7.73621 13.9413 9.45356C13.9413 11.1709 12.4507 12.5603 10.6082 12.5603ZM17.1482 4.47803C17.1478 4.77493 17.0211 5.05957 16.7957 5.2694C16.5704 5.47923 16.2648 5.5971 15.9463 5.5971C15.7888 5.5971 15.6328 5.56818 15.4873 5.512C15.3418 5.45582 15.2096 5.37348 15.0982 5.26967C14.9868 5.16586 14.8985 5.04263 14.8382 4.907C14.7779 4.77137 14.7469 4.626 14.7469 4.47919C14.7469 4.33239 14.7779 4.18702 14.8382 4.05139C14.8985 3.91576 14.9868 3.79252 15.0982 3.68871C15.2096 3.58491 15.3418 3.50256 15.4873 3.44638C15.6328 3.3902 15.7888 3.36129 15.9463 3.36129C16.6069 3.36129 17.1482 3.86228 17.1482 4.47803Z" fill="white"/>
</svg>
