<svg width="25" height="19" viewBox="0 0 25 19" fill="none" xmlns="http://www.w3.org/2000/svg">
<path d="M24.1083 2.41739C23.2417 2.77785 22.2986 3.03727 21.3272 3.13831C22.3357 2.56058 23.091 1.64787 23.4512 0.571423C22.5049 1.11426 21.4681 1.49491 20.387 1.69648C19.9351 1.23069 19.3886 0.859623 18.7815 0.606396C18.1744 0.35317 17.5197 0.223212 16.8583 0.224621C14.182 0.224621 12.0297 2.31636 12.0297 4.88324C12.0297 5.24369 12.075 5.60415 12.1486 5.95095C8.1413 5.74888 4.56728 3.90291 2.19121 1.07661C1.75826 1.78964 1.53139 2.60152 1.53418 3.42776C1.53418 5.04435 2.38662 6.46979 3.68652 7.30812C2.92047 7.27903 2.17236 7.07601 1.50303 6.71556V6.7729C1.50303 9.03667 3.1626 10.9127 5.37441 11.3441C4.95912 11.4481 4.5319 11.5014 4.10283 11.5025C3.78847 11.5025 3.49111 11.4725 3.19092 11.4315C3.80263 13.2775 5.58398 14.6183 7.70517 14.662C6.0456 15.9154 3.96689 16.6527 1.70976 16.6527C1.30478 16.6527 0.930957 16.639 0.542969 16.5953C2.68398 17.9197 5.22431 18.6843 7.96005 18.6843C16.8413 18.6843 21.7011 11.5899 21.7011 5.43211C21.7011 5.23004 21.7011 5.02797 21.6869 4.82589C22.6271 4.16233 23.4512 3.34038 24.1083 2.41739Z" fill="white"/>
</svg>
