<svg width="102" height="20" viewBox="0 0 102 20" xmlns="http://www.w3.org/2000/svg" fill="none"><style>.a{fill:white;}</style><path d="M4.2 0H0V14.8C0 15.8 0 16.5 0.1 17.2 0.2 19.1 1.3 19.9 3.4 19.9 4.3 19.9 5.1 19.8 5.9 19.7V16.9C4.6 16.9 4.3 16.7 4.3 16.1 4.2 15.7 4.2 15.4 4.2 14.8V0Z" class="a"/><path d="M20.8 12.3C20.8 8.5 18.4 5 13.8 5 9.3 5 6.4 8.3 6.4 12.6 6.4 17.6 9.5 20 13.6 20 17.1 20 19.8 18.3 20.5 15H16.4C16.1 16.3 15.1 17.1 13.6 17.1 12 17.1 10.9 16.3 10.6 13.6H20.7C20.8 13.1 20.8 12.6 20.8 12.3ZM13.6 7.9C15.2 7.9 16.1 8.9 16.4 10.9H10.7C11.1 8.8 12.1 7.9 13.6 7.9Z" class="a"/><path d="M28.9 5C24.8 5 21.6 7.7 21.6 12.6 21.6 17.5 24.6 20 28.6 20 32.3 20 35.1 18.2 35.6 14.6H31.5C31.1 16.2 30.1 17.1 28.8 17.1 27.1 17.1 25.9 15.7 25.9 12.4 25.9 9.3 27 7.9 28.8 7.9 30.2 7.9 31.2 8.7 31.5 10.7H35.6C35.4 7.5 32.9 5 28.9 5Z" class="a"/><path d="M42.3 8.2H45.3V5.5H42.3V1.9H38.1V5.5H35.9V8.2H38.1V14.7C38.1 15.5 38.1 16.2 38.1 16.9 38.3 19 39.3 20 42.5 20 43.4 20 44.2 19.9 45.1 19.8V17.1C42.9 17.2 42.4 16.9 42.3 15.5 42.3 15.1 42.3 14.6 42.3 14.2V8.2Z" class="a"/><path d="M53.2 5C48.4 5 45.6 8.1 45.6 12.5 45.6 16.9 48.4 20 53.2 20 58 20 60.8 16.9 60.8 12.5 60.8 8.1 58 5 53.2 5ZM53.2 17.1C51.2 17.1 50 15.5 50 12.5 50 9.5 51.2 7.9 53.2 7.9 55.2 7.9 56.4 9.5 56.4 12.5 56.4 15.5 55.2 17.1 53.2 17.1Z" class="a"/><path d="M76.2 8.9C75.9 6.5 74.2 5 71.1 5 69.8 5 68.8 5.3 67.8 5.9L66.6 7.6V5.4H62.4V19.6H66.6V13C66.6 9.4 67.9 7.9 69.5 7.9 71.2 7.9 72 8.8 72.1 10.3 72.1 11 72.1 11.7 72.1 12.2V19.6H76.4V11.6C76.4 10.4 76.3 9.7 76.2 8.9Z" class="a"/><path d="M92.2 12.3C92.2 8.5 89.8 5 85.3 5 80.7 5 77.8 8.3 77.8 12.6 77.8 17.6 81 20 85 20 88.5 20 91.2 18.3 92 15H87.8C87.6 16.3 86.6 17.1 85.1 17.1 83.5 17.1 82.3 16.3 82.1 13.6H92.1C92.2 13.1 92.2 12.6 92.2 12.3ZM85.1 7.9C86.6 7.9 87.6 8.9 87.8 10.9H82.2C82.5 8.8 83.6 7.9 85.1 7.9Z" class="a"/><path d="M99 8.2H102V5.5H99V1.9H94.7V5.5H92.5V8.2H94.7V14.7C94.7 15.5 94.7 16.2 94.8 16.9 94.9 19 96 20 99.1 20 100 20 100.9 19.9 101.7 19.8V17.1C99.6 17.2 99.1 16.9 99 15.5 99 15.1 99 14.6 99 14.2V8.2Z" class="a"/></svg>