<svg width="102" height="20" viewBox="0 0 102 20" fill="none" xmlns="http://www.w3.org/2000/svg">
<path d="M4.2317 0H0V14.8465C0 15.8344 -7.82311e-08 16.5287 0.0539069 17.223C0.161721 19.0921 1.34767 19.8665 3.36919 19.8665C4.31256 19.8665 5.09421 19.8131 5.90281 19.733V16.8758C4.636 16.9292 4.33951 16.7156 4.25865 16.0748C4.2317 15.7009 4.2317 15.3805 4.2317 14.7664V0Z" fill="#333333"/>
<path d="M20.7816 12.2563C20.7816 8.46462 18.4097 5.02003 13.8276 5.02003C9.27242 5.02003 6.3884 8.2777 6.3884 12.5501C6.3884 17.5701 9.54196 20 13.558 20C17.062 20 19.7573 18.2644 20.539 14.98H16.3612C16.1186 16.3151 15.1213 17.1162 13.6389 17.1162C12.0486 17.1162 10.8627 16.3151 10.6201 13.5915H20.7007C20.7546 13.0841 20.7816 12.6302 20.7816 12.2563ZM13.6389 7.90387C15.2022 7.90387 16.1456 8.94526 16.3881 10.9479H10.7279C11.0783 8.83845 12.1295 7.90387 13.6389 7.90387Z" fill="#333333"/>
<path d="M28.9186 5.02003C24.8486 5.02003 21.5603 7.74366 21.5603 12.6302C21.5603 17.4633 24.5791 20 28.5682 20C32.3147 20 35.064 18.1575 35.63 14.5794H31.4522C31.1288 16.235 30.1045 17.1162 28.8107 17.1162C27.0588 17.1162 25.8998 15.6742 25.8998 12.3632C25.8998 9.34579 27.0318 7.90387 28.8107 7.90387C30.2123 7.90387 31.2096 8.70494 31.5061 10.6542H35.63C35.4144 7.47664 32.9346 5.02003 28.9186 5.02003Z" fill="#333333"/>
<path d="M42.294 8.17089H45.3398V5.50067H42.294V1.92256H38.0623V5.50067H35.8791V8.17089H38.0623V14.7129C38.0623 15.514 38.0623 16.1549 38.1162 16.8758C38.278 18.9586 39.3022 19.9733 42.4557 19.9733C43.3722 19.9733 44.2077 19.8932 45.0702 19.7597V17.0895C42.914 17.223 42.4288 16.9025 42.321 15.4873C42.294 15.1135 42.294 14.6328 42.294 14.1522V8.17089Z" fill="#333333"/>
<path d="M53.2133 5.02003C48.4426 5.02003 45.6394 8.06408 45.6394 12.4967C45.6394 16.9292 48.4426 20 53.2133 20C57.9572 20 60.7873 16.9292 60.7873 12.4967C60.7873 8.06408 57.9572 5.02003 53.2133 5.02003ZM53.2133 17.1162C51.1918 17.1162 49.9789 15.4606 49.9789 12.4967C49.9789 9.53271 51.1918 7.90387 53.2133 7.90387C55.2079 7.90387 56.4208 9.53271 56.4208 12.4967C56.4208 15.4606 55.2079 17.1162 53.2133 17.1162Z" fill="#333333"/>
<path d="M76.2392 8.94526C75.9158 6.46195 74.1638 5.02003 71.145 5.02003C69.7973 5.02003 68.7731 5.28705 67.8028 5.9279L66.6168 7.63685V5.39386H62.3851V19.6262H66.6168V13.0307C66.6168 9.3992 67.8567 7.90387 69.5278 7.90387C71.1719 7.90387 71.9805 8.81175 72.0884 10.2537C72.1423 10.9746 72.1423 11.6956 72.1423 12.2296V19.6262H76.374V11.5888C76.374 10.4406 76.347 9.66622 76.2392 8.94526Z" fill="#333333"/>
<path d="M92.2188 12.2563C92.2188 8.46462 89.8469 5.02003 85.2648 5.02003C80.7097 5.02003 77.8257 8.2777 77.8257 12.5501C77.8257 17.5701 80.9792 20 84.9953 20C88.4992 20 91.1946 18.2644 91.9762 14.98H87.7985C87.5559 16.3151 86.5586 17.1162 85.0761 17.1162C83.4859 17.1162 82.2999 16.3151 82.0574 13.5915H92.138C92.1919 13.0841 92.2188 12.6302 92.2188 12.2563ZM85.0761 7.90387C86.6395 7.90387 87.5828 8.94526 87.8254 10.9479H82.1652C82.5156 8.83845 83.5668 7.90387 85.0761 7.90387Z" fill="#333333"/>
<path d="M98.9542 8.17089H102V5.50067H98.9542V1.92256H94.7225V5.50067H92.5393V8.17089H94.7225V14.7129C94.7225 15.514 94.7225 16.1549 94.7765 16.8758C94.9382 18.9586 95.9624 19.9733 99.116 19.9733C100.032 19.9733 100.868 19.8932 101.73 19.7597V17.0895C99.5742 17.223 99.089 16.9025 98.9812 15.4873C98.9542 15.1135 98.9542 14.6328 98.9542 14.1522V8.17089Z" fill="#333333"/>
</svg>
