<svg width="142" height="26" viewBox="0 0 142 26" fill="none" xmlns="http://www.w3.org/2000/svg">
<path d="M7.44173 2.17969H2.91614V18.6581C2.91614 19.7547 2.91614 20.5252 2.97379 21.2958C3.08909 23.3704 4.35741 24.2299 6.51931 24.2299C7.5282 24.2299 8.36414 24.1706 9.2289 24.0817V20.9105C7.87411 20.9698 7.55703 20.7327 7.47055 20.0214C7.44173 19.6065 7.44173 19.2508 7.44173 18.5692V2.17969Z" fill="white"/>
<path d="M25.141 15.7833C25.141 11.5747 22.6043 7.75152 17.704 7.75152C12.8325 7.75152 9.74821 11.3673 9.74821 16.1093C9.74821 21.6811 13.1208 24.3781 17.4158 24.3781C21.1631 24.3781 24.0456 22.4517 24.8816 18.8063H20.4136C20.1542 20.2881 19.0876 21.1773 17.5022 21.1773C15.8015 21.1773 14.5332 20.2881 14.2738 17.2651H25.0545C25.1122 16.702 25.141 16.1982 25.141 15.7833ZM17.5022 10.9524C19.1741 10.9524 20.183 12.1082 20.4424 14.331H14.3891C14.7638 11.9897 15.888 10.9524 17.5022 10.9524Z" fill="white"/>
<path d="M33.8431 7.75152C29.4905 7.75152 25.9738 10.7745 25.9738 16.1982C25.9738 21.5625 29.2022 24.3781 33.4684 24.3781C37.4751 24.3781 40.4153 22.3331 41.0206 18.3617H36.5527C36.2068 20.1992 35.1114 21.1773 33.7278 21.1773C31.8542 21.1773 30.6147 19.5768 30.6147 15.9018C30.6147 12.5528 31.8253 10.9524 33.7278 10.9524C35.2267 10.9524 36.2933 11.8415 36.6103 14.005H41.0206C40.79 10.4782 38.1381 7.75152 33.8431 7.75152Z" fill="white"/>
<path d="M48.1475 11.2487H51.4048V8.28499H48.1475V4.31358H43.6219V8.28499H41.287V11.2487H43.6219V18.5099C43.6219 19.399 43.6219 20.1103 43.6796 20.9105C43.8525 23.2222 44.9479 24.3485 48.3204 24.3485C49.3005 24.3485 50.1941 24.2596 51.1165 24.1114V21.1476C48.8105 21.2958 48.2916 20.9402 48.1763 19.3694C48.1475 18.9545 48.1475 18.421 48.1475 17.8875V11.2487Z" fill="white"/>
<path d="M59.8252 7.75152C54.7231 7.75152 51.7252 11.1302 51.7252 16.05C51.7252 20.9698 54.7231 24.3781 59.8252 24.3781C64.8984 24.3781 67.9251 20.9698 67.9251 16.05C67.9251 11.1302 64.8984 7.75152 59.8252 7.75152ZM59.8252 21.1773C57.6633 21.1773 56.3661 19.3397 56.3661 16.05C56.3661 12.7602 57.6633 10.9524 59.8252 10.9524C61.9582 10.9524 63.2554 12.7602 63.2554 16.05C63.2554 19.3397 61.9582 21.1773 59.8252 21.1773Z" fill="white"/>
<path d="M84.4502 12.1082C84.1043 9.35194 82.2306 7.75152 79.0022 7.75152C77.5609 7.75152 76.4655 8.04789 75.4278 8.75919L74.1595 10.656V8.16644H69.6339V23.9632H74.1595V16.6427C74.1595 12.6121 75.4855 10.9524 77.2726 10.9524C79.031 10.9524 79.8958 11.96 80.0111 13.5604C80.0687 14.3607 80.0687 15.1609 80.0687 15.7536V23.9632H84.5943V15.0423C84.5943 13.7679 84.5655 12.9084 84.4502 12.1082Z" fill="white"/>
<path d="M101.54 15.7833C101.54 11.5747 99.0029 7.75152 94.1026 7.75152C89.2311 7.75152 86.1468 11.3673 86.1468 16.1093C86.1468 21.6811 89.5194 24.3781 93.8144 24.3781C97.5617 24.3781 100.444 22.4517 101.28 18.8063H96.8122C96.5528 20.2881 95.4862 21.1773 93.9008 21.1773C92.2001 21.1773 90.9318 20.2881 90.6724 17.2651H101.453C101.511 16.702 101.54 16.1982 101.54 15.7833ZM93.9008 10.9524C95.5727 10.9524 96.5816 12.1082 96.841 14.331H90.7877C91.1624 11.9897 92.2866 10.9524 93.9008 10.9524Z" fill="white"/>
<path d="M108.743 11.2487H112V8.28499H108.743V4.31358H104.217V8.28499H101.882V11.2487H104.217V18.5099C104.217 19.399 104.217 20.1103 104.275 20.9105C104.448 23.2222 105.543 24.3485 108.916 24.3485C109.896 24.3485 110.789 24.2596 111.712 24.1114V21.1476C109.406 21.2958 108.887 20.9402 108.772 19.3694C108.743 18.9545 108.743 18.421 108.743 17.8875V11.2487Z" fill="white"/>
</svg>
